# xmcd
#
# Track frame offsets: 
#        150
#        31475
#        53672
#        78085
#        112355
#        133342
#        157825
#        192840
#
# Disc length: 2829 seconds
#
# Revision: 1
# Processed by: cddbd v1.5.2PL0 Copyright (c) Steve Scherf et al.
# Submitted via: ExactAudioCopy v0.95b4
#
DISCID=650b0b08
DTITLE=Pinetop Perkins - Born in the Delta (Telarc)
DYEAR=1996
DGENRE=Piano
TTITLE0=Everyday I Have the Blues
TTITLE1=For You My Love
TTITLE2=Look on Yonder Wall
TTITLE3=Blues After Hours
TTITLE4=Murmur Law
TTITLE5=How Long, How Long Blues
TTITLE6=Baby, What You Want Me To Do ?
TTITLE7=Blues oh Blues
EXTD=
EXTT0=
EXTT1=
EXTT2=
EXTT3=
EXTT4=
EXTT5=
EXTT6=
EXTT7=
PLAYORDER=
